<svg width="209" height="105" viewBox="0 0 209 105" fill="none" xmlns="http://www.w3.org/2000/svg">
<path d="M204.281 79.4351C203.367 79.9561 202.359 80.2919 201.316 80.4231C200.272 80.5543 199.213 80.4784 198.199 80.1998C197.184 79.9211 196.235 79.4452 195.405 78.7992C194.575 78.1532 193.88 77.3498 193.361 76.4351L174.361 43.2351C163.315 50.7039 151.13 56.3303 138.281 59.8951L144.151 95.1151C144.324 96.1519 144.291 97.2127 144.054 98.2369C143.817 99.261 143.381 100.228 142.769 101.084C142.158 101.939 141.385 102.666 140.493 103.222C139.601 103.778 138.608 104.153 137.571 104.325C137.144 104.395 136.713 104.432 136.281 104.435C134.388 104.432 132.558 103.759 131.115 102.534C129.672 101.309 128.711 99.6121 128.401 97.7451L122.631 63.1651C110.463 64.8584 98.1188 64.8584 85.9507 63.1651L80.1807 97.7451C79.8703 99.6155 78.9056 101.315 77.4587 102.54C76.0118 103.765 74.1767 104.437 72.2807 104.435C71.8385 104.433 71.3972 104.396 70.9607 104.325C69.9237 104.153 68.9308 103.778 68.0388 103.222C67.1468 102.666 66.3731 101.939 65.762 101.084C65.1509 100.228 64.7144 99.261 64.4774 98.2369C64.2404 97.2127 64.2075 96.1519 64.3807 95.1151L70.2807 59.8951C57.437 56.319 45.2588 50.6824 34.2207 43.2051L15.2807 76.4351C14.7555 77.3504 14.055 78.1533 13.2194 78.7979C12.3839 79.4425 11.4295 79.9162 10.4108 80.192C9.39219 80.4678 8.32918 80.5403 7.28253 80.4052C6.23587 80.2702 5.22606 79.9304 4.31074 79.4051C3.39543 78.8798 2.59254 78.1794 1.94792 77.3438C1.3033 76.5082 0.82957 75.5538 0.55378 74.5352C0.27799 73.5165 0.20554 72.4535 0.340567 71.4069C0.475594 70.3602 0.815453 69.3504 1.34074 68.4351L21.3407 33.4351C14.3157 27.3659 7.85592 20.6718 2.04074 13.4351C1.31553 12.6254 0.762938 11.6763 0.416697 10.646C0.0704558 9.61558 -0.0621723 8.52544 0.0269113 7.4421C0.115995 6.35875 0.424921 5.30493 0.93483 4.34495C1.44474 3.38497 2.14493 2.53897 2.99268 1.8586C3.84042 1.17823 4.81792 0.677762 5.86552 0.387739C6.91311 0.0977154 8.00882 0.024222 9.08576 0.17175C10.1627 0.319279 11.1983 0.684733 12.1293 1.2458C13.0603 1.80687 13.8672 2.55178 14.5007 3.43507C31.1007 23.9751 60.1407 48.4351 104.281 48.4351C148.421 48.4351 177.461 23.9451 194.061 3.43507C194.687 2.5337 195.492 1.77086 196.426 1.19399C197.36 0.617125 198.402 0.238582 199.489 0.0819143C200.575 -0.0747534 201.682 -0.00619549 202.741 0.283323C203.799 0.572841 204.787 1.07713 205.643 1.76481C206.498 2.45248 207.203 3.30884 207.713 4.28061C208.224 5.25237 208.528 6.31874 208.609 7.41339C208.689 8.50804 208.544 9.60753 208.181 10.6435C207.818 11.6794 207.246 12.6297 206.501 13.4351C200.686 20.6718 194.226 27.3659 187.201 33.4351L207.201 68.4351C207.738 69.3474 208.088 70.3573 208.232 71.4061C208.376 72.4549 208.31 73.5218 208.038 74.5449C207.767 75.5681 207.295 76.5272 206.65 77.3666C206.005 78.206 205.199 78.9091 204.281 79.4351Z" fill="#7A7A7A"/>
</svg>
