<svg width="240" height="160" viewBox="0 0 240 160" fill="none" xmlns="http://www.w3.org/2000/svg">
<path d="M239.31 76.76C238.96 75.97 230.49 57.18 211.66 38.35C186.57 13.26 154.88 0 120 0C85.1199 0 53.4299 13.26 28.3399 38.35C9.5099 57.18 0.999904 76 0.689904 76.76C0.235036 77.7831 0 78.8903 0 80.01C0 81.1297 0.235036 82.2369 0.689904 83.26C1.0399 84.05 9.5099 102.83 28.3399 121.66C53.4299 146.74 85.1199 160 120 160C154.88 160 186.57 146.74 211.66 121.66C230.49 102.83 238.96 84.05 239.31 83.26C239.765 82.2369 240 81.1297 240 80.01C240 78.8903 239.765 77.7831 239.31 76.76ZM120 144C89.2199 144 62.3299 132.81 40.0699 110.75C30.9364 101.667 23.1658 91.3095 16.9999 80C23.1641 68.6894 30.9349 58.3318 40.0699 49.25C62.3299 27.19 89.2199 16 120 16C150.78 16 177.67 27.19 199.93 49.25C209.081 58.3296 216.869 68.6872 223.05 80C215.84 93.46 184.43 144 120 144ZM120 32C110.506 32 101.226 34.8152 93.3325 40.0895C85.439 45.3638 79.2867 52.8603 75.6537 61.6312C72.0207 70.402 71.0701 80.0532 72.9222 89.3643C74.7743 98.6754 79.3459 107.228 86.0588 113.941C92.7717 120.654 101.324 125.226 110.636 127.078C119.947 128.93 129.598 127.979 138.369 124.346C147.14 120.713 154.636 114.561 159.91 106.667C165.185 98.7738 168 89.4935 168 80C167.987 67.2737 162.925 55.0724 153.926 46.0735C144.928 37.0746 132.726 32.0132 120 32ZM120 112C113.671 112 107.484 110.123 102.222 106.607C96.9593 103.091 92.8578 98.0931 90.4358 92.2459C88.0138 86.3986 87.38 79.9645 88.6148 73.7571C89.8495 67.5497 92.8972 61.8479 97.3725 57.3726C101.848 52.8973 107.55 49.8496 113.757 48.6149C119.964 47.3801 126.399 48.0138 132.246 50.4359C138.093 52.8579 143.091 56.9594 146.607 62.2218C150.123 67.4841 152 73.671 152 80C152 88.4869 148.628 96.6262 142.627 102.627C136.626 108.629 128.487 112 120 112Z" fill="#7A7A7A"/>
</svg>
