<svg width="1023" height="973" viewBox="0 0 1023 973" fill="none" xmlns="http://www.w3.org/2000/svg">
<circle cx="481.5" cy="481.5" r="466.5" fill="#D9D9D9" stroke="#647AC6" stroke-width="30"/>
<path d="M699.035 663.158C670.407 613.5 625.704 574.808 572.122 553.309C598.768 533.559 618.45 506.023 628.381 474.603C638.312 443.182 637.988 409.47 627.456 378.242C616.923 347.013 596.716 319.852 569.696 300.604C542.676 281.357 510.214 271 476.907 271C443.6 271 411.138 281.357 384.118 300.604C357.098 319.852 336.891 347.013 326.358 378.242C315.825 409.47 315.502 443.182 325.433 474.603C335.364 506.023 355.046 533.559 381.691 553.309C328.11 574.808 283.407 613.5 254.779 663.158C253.005 665.977 251.823 669.12 251.303 672.399C250.782 675.679 250.934 679.029 251.75 682.249C252.565 685.469 254.028 688.495 256.05 691.145C258.072 693.796 260.613 696.018 263.522 697.678C266.43 699.339 269.647 700.405 272.98 700.813C276.314 701.22 279.696 700.961 282.927 700.051C286.157 699.141 289.169 697.598 291.784 695.514C294.399 693.431 296.563 690.849 298.148 687.922C335.984 623.288 402.802 584.739 476.907 584.739C551.012 584.739 617.83 623.309 655.666 687.922C659.101 693.381 664.549 697.306 670.859 698.867C677.169 700.428 683.846 699.502 689.478 696.286C695.11 693.07 699.256 687.816 701.04 681.633C702.823 675.451 702.104 668.826 699.035 663.158ZM368.328 427.9C368.328 406.676 374.696 385.929 386.627 368.282C398.558 350.635 415.515 336.88 435.356 328.758C455.196 320.636 477.027 318.511 498.09 322.652C519.152 326.792 538.499 337.013 553.684 352.02C568.869 367.028 579.21 386.149 583.4 406.965C587.589 427.781 585.439 449.358 577.221 468.966C569.003 488.575 555.086 505.334 537.23 517.126C519.374 528.917 498.382 535.211 476.907 535.211C448.12 535.178 420.522 523.862 400.167 503.744C379.811 483.627 368.361 456.351 368.328 427.9Z" fill="#9E9BA0"/>
<circle cx="807.5" cy="757.5" r="215.5" fill="#647AC6"/>
<path d="M879.461 719.273L845.721 685.539C844.6 684.417 843.268 683.527 841.802 682.92C840.336 682.313 838.765 682 837.179 682C835.592 682 834.021 682.313 832.556 682.92C831.09 683.527 829.758 684.417 828.636 685.539L735.541 778.639C734.414 779.757 733.521 781.088 732.913 782.553C732.305 784.019 731.995 785.592 732 787.179V820.92C732 824.124 733.273 827.196 735.538 829.462C737.804 831.727 740.876 833 744.08 833H870.915C872.517 833 874.053 832.364 875.186 831.231C876.318 830.098 876.955 828.562 876.955 826.96C876.955 825.358 876.318 823.822 875.186 822.689C874.053 821.556 872.517 820.92 870.915 820.92H794.904L879.461 736.359C880.583 735.237 881.473 733.905 882.08 732.439C882.688 730.974 883 729.403 883 727.816C883 726.229 882.688 724.658 882.08 723.192C881.473 721.727 880.583 720.395 879.461 719.273ZM810.517 720.738L823.118 733.339L759.179 797.281L746.579 784.679L810.517 720.738ZM744.08 820.92V799.259L765.74 820.92H744.08ZM780.318 818.421L759.179 797.281L791.148 765.31L823.118 733.339L844.257 754.479L780.318 818.421ZM852.796 745.94L819.063 712.199L837.183 694.078L870.915 727.82L852.796 745.94Z" fill="#E9E9ED"/>
</svg>
